<svg width="236" height="236" viewBox="0 0 236 236" fill="none" xmlns="http://www.w3.org/2000/svg">
<path fill-rule="evenodd" clip-rule="evenodd" d="M118 21.8292V0.758957C85.6737 0.758957 56.4079 14.1307 35.2236 35.3744L49.8903 50.0411C67.321 32.6104 91.4013 21.8292 118 21.8292Z" fill="#08AD36"/>
<path fill-rule="evenodd" clip-rule="evenodd" d="M21.6789 118.151L0.608402 118.151C0.608402 85.8245 13.9802 56.5587 35.2239 35.3745L49.8906 50.0412C32.46 67.472 21.6789 91.5522 21.6789 118.151Z" fill="#08AD36"/>
<path fill-rule="evenodd" clip-rule="evenodd" d="M21.6789 118.151H0.608406C0.608406 150.477 13.9802 179.742 35.2239 200.927L49.8906 186.26C32.46 168.829 21.6789 144.749 21.6789 118.151Z" fill="#CFD8DC"/>
<path fill-rule="evenodd" clip-rule="evenodd" d="M118 214.472V235.542C85.6737 235.542 56.4079 222.17 35.2236 200.927L49.8903 186.26C67.321 203.691 91.4013 214.472 118 214.472Z" fill="#CFD8DC"/>
<path fill-rule="evenodd" clip-rule="evenodd" d="M118 214.472V235.542C150.326 235.542 179.592 222.17 200.776 200.927L186.109 186.26C168.678 203.691 144.598 214.472 118 214.472Z" fill="#CFD8DC"/>
<path fill-rule="evenodd" clip-rule="evenodd" d="M214.321 118.151H235.392C235.392 150.477 222.02 179.742 200.776 200.927L186.109 186.26C203.54 168.829 214.321 144.749 214.321 118.151Z" fill="#CFD8DC"/>
<path fill-rule="evenodd" clip-rule="evenodd" d="M214.321 118.151L235.392 118.151C235.392 85.8245 222.02 56.5587 200.776 35.3745L186.109 50.0412C203.54 67.472 214.321 91.5522 214.321 118.151Z" fill="#CFD8DC"/>
<path fill-rule="evenodd" clip-rule="evenodd" d="M118 21.8293V0.759026C150.326 0.759026 179.592 14.1308 200.776 35.3745L186.109 50.0412C168.678 32.6104 144.598 21.8293 118 21.8293Z" fill="#27AE60"/>
<path d="M80.4189 121.96V115.103H64.7095V108.553L78.6279 86.2427H87.7363V109.167H92.2393V115.103H87.7363V121.96H80.4189ZM70.85 109.167H80.4189V94.1742H79.9072L70.85 109.167ZM120.056 92.9461H103.835L103.068 104.255H103.477C103.818 103.402 104.193 102.634 104.603 101.952C105.046 101.236 105.558 100.639 106.138 100.161C106.718 99.6494 107.417 99.2571 108.236 98.9842C109.054 98.7113 110.027 98.5748 111.152 98.5748C112.688 98.5748 114.12 98.8307 115.451 99.3424C116.781 99.8541 117.941 100.605 118.93 101.594C119.92 102.549 120.704 103.743 121.284 105.176C121.864 106.575 122.154 108.161 122.154 109.935C122.154 111.743 121.847 113.431 121.233 115.001C120.653 116.536 119.766 117.866 118.572 118.992C117.412 120.118 115.98 121.005 114.274 121.653C112.568 122.267 110.624 122.574 108.44 122.574C106.701 122.574 105.166 122.386 103.835 122.011C102.505 121.636 101.328 121.141 100.304 120.527C99.2809 119.879 98.3939 119.145 97.6434 118.327C96.8929 117.508 96.2447 116.638 95.6989 115.717L101.277 111.316C102.061 112.715 102.999 113.909 104.091 114.898C105.183 115.853 106.649 116.331 108.492 116.331C110.334 116.331 111.715 115.802 112.636 114.745C113.592 113.687 114.069 112.289 114.069 110.549V110.139C114.069 108.502 113.592 107.206 112.636 106.25C111.681 105.295 110.368 104.818 108.696 104.818C107.298 104.818 106.138 105.108 105.217 105.688C104.33 106.233 103.647 106.779 103.17 107.325L96.8759 106.455L98.2063 86.2427H120.056V92.9461ZM132.675 121.96L157.442 86.2427H164.196L139.43 121.96H132.675ZM135.285 105.892C132.283 105.892 129.997 105.039 128.428 103.334C126.859 101.628 126.074 99.1036 126.074 95.7604C126.074 92.4173 126.859 89.8929 128.428 88.1872C129.997 86.4815 132.283 85.6287 135.285 85.6287C138.287 85.6287 140.573 86.4815 142.142 88.1872C143.711 89.8929 144.496 92.4173 144.496 95.7604C144.496 99.1036 143.711 101.628 142.142 103.334C140.573 105.039 138.287 105.892 135.285 105.892ZM135.285 101.492C136.172 101.492 136.837 101.15 137.281 100.468C137.724 99.7518 137.946 98.626 137.946 97.0909V94.43C137.946 92.8949 137.724 91.7862 137.281 91.1039C136.837 90.3875 136.172 90.0293 135.285 90.0293C134.398 90.0293 133.733 90.3875 133.289 91.1039C132.846 91.7862 132.624 92.8949 132.624 94.43V97.0909C132.624 98.626 132.846 99.7518 133.289 100.468C133.733 101.15 134.398 101.492 135.285 101.492ZM161.587 122.574C158.585 122.574 156.299 121.721 154.73 120.015C153.161 118.31 152.376 115.785 152.376 112.442C152.376 109.099 153.161 106.575 154.73 104.869C156.299 103.163 158.585 102.31 161.587 102.31C164.589 102.31 166.874 103.163 168.444 104.869C170.013 106.575 170.798 109.099 170.798 112.442C170.798 115.785 170.013 118.31 168.444 120.015C166.874 121.721 164.589 122.574 161.587 122.574ZM161.587 118.173C162.474 118.173 163.139 117.832 163.582 117.15C164.026 116.433 164.248 115.308 164.248 113.773V111.112C164.248 109.577 164.026 108.468 163.582 107.786C163.139 107.069 162.474 106.711 161.587 106.711C160.7 106.711 160.035 107.069 159.591 107.786C159.148 108.468 158.926 109.577 158.926 111.112V113.773C158.926 115.308 159.148 116.433 159.591 117.15C160.035 117.832 160.7 118.173 161.587 118.173Z" fill="#219653"/>
<path d="M49.1313 145.181V134.676H54.0979C54.5895 134.676 55.031 134.761 55.4223 134.932C55.8136 135.092 56.1447 135.318 56.4156 135.609C56.6965 135.9 56.9122 136.256 57.0627 136.677C57.2133 137.089 57.2885 137.54 57.2885 138.032C57.2885 138.534 57.2133 138.99 57.0627 139.401C56.9122 139.813 56.6965 140.164 56.4156 140.455C56.1447 140.746 55.8136 140.977 55.4223 141.147C55.031 141.308 54.5895 141.388 54.0979 141.388H51.4189V145.181H49.1313ZM51.4189 139.401H53.827C54.1681 139.401 54.434 139.316 54.6246 139.146C54.8253 138.965 54.9256 138.704 54.9256 138.363V137.701C54.9256 137.36 54.8253 137.104 54.6246 136.933C54.434 136.753 54.1681 136.662 53.827 136.662H51.4189V139.401ZM66.6348 145.181L65.8823 142.682H62.3756L61.6231 145.181H59.3053L62.7669 134.676H65.5963L69.0127 145.181H66.6348ZM64.1515 136.753H64.0763L62.9174 140.741H65.3254L64.1515 136.753ZM72.3173 145.181V143.36H73.6718V136.497H72.3173V134.676H77.314V136.497H75.9594V143.36H77.314V145.181H72.3173ZM81.4775 134.676H85.4357C86.128 134.676 86.7601 134.786 87.332 135.007C87.9039 135.228 88.3905 135.559 88.7919 136C89.1932 136.432 89.5042 136.978 89.725 137.641C89.9457 138.293 90.0561 139.055 90.0561 139.928C90.0561 140.801 89.9457 141.569 89.725 142.231C89.5042 142.883 89.1932 143.43 88.7919 143.871C88.3905 144.303 87.9039 144.629 87.332 144.85C86.7601 145.07 86.128 145.181 85.4357 145.181H81.4775V134.676ZM85.4357 143.149C86.1179 143.149 86.6547 142.958 87.046 142.577C87.4373 142.196 87.633 141.584 87.633 140.741V139.115C87.633 138.273 87.4373 137.661 87.046 137.279C86.6547 136.898 86.1179 136.707 85.4357 136.707H83.7651V143.149H85.4357ZM104.423 136.707V145.181H102.135V136.707H99.2908V134.676H107.267V136.707H104.423ZM114.922 145.361C114.23 145.361 113.597 145.246 113.026 145.015C112.454 144.784 111.967 144.443 111.566 143.992C111.164 143.53 110.853 142.963 110.633 142.291C110.412 141.609 110.301 140.821 110.301 139.928C110.301 139.035 110.412 138.253 110.633 137.58C110.853 136.898 111.164 136.331 111.566 135.88C111.967 135.418 112.454 135.072 113.026 134.841C113.597 134.61 114.23 134.495 114.922 134.495C115.614 134.495 116.246 134.61 116.818 134.841C117.39 135.072 117.877 135.418 118.278 135.88C118.679 136.331 118.99 136.898 119.211 137.58C119.432 138.253 119.542 139.035 119.542 139.928C119.542 140.821 119.432 141.609 119.211 142.291C118.99 142.963 118.679 143.53 118.278 143.992C117.877 144.443 117.39 144.784 116.818 145.015C116.246 145.246 115.614 145.361 114.922 145.361ZM114.922 143.33C115.614 143.33 116.151 143.104 116.532 142.652C116.924 142.201 117.119 141.554 117.119 140.711V139.146C117.119 138.303 116.924 137.656 116.532 137.204C116.151 136.753 115.614 136.527 114.922 136.527C114.23 136.527 113.688 136.753 113.296 137.204C112.915 137.656 112.725 138.303 112.725 139.146V140.711C112.725 141.554 112.915 142.201 113.296 142.652C113.688 143.104 114.23 143.33 114.922 143.33ZM125.012 145.181L122.634 134.676H124.892L125.885 139.717L126.442 142.637H126.487L127.149 139.717L128.308 134.676H130.806L131.98 139.717L132.627 142.637H132.672L133.229 139.717L134.238 134.676H136.405L133.967 145.181H131.363L130.039 139.492L129.527 137.189H129.482L128.955 139.492L127.631 145.181H125.012ZM146.298 145.181L145.545 142.682H142.039L141.286 145.181H138.969L142.43 134.676H145.259L148.676 145.181H146.298ZM143.815 136.753H143.739L142.581 140.741H144.989L143.815 136.753ZM154.674 145.181H152.387V134.676H157.368C157.85 134.676 158.287 134.756 158.678 134.916C159.069 135.077 159.4 135.308 159.671 135.609C159.952 135.9 160.168 136.251 160.318 136.662C160.469 137.074 160.544 137.53 160.544 138.032C160.544 138.744 160.384 139.366 160.062 139.898C159.751 140.43 159.275 140.816 158.633 141.057L160.695 145.181H158.151L156.315 141.328H154.674V145.181ZM157.082 139.401C157.424 139.401 157.69 139.316 157.88 139.146C158.081 138.965 158.181 138.704 158.181 138.363V137.701C158.181 137.36 158.081 137.104 157.88 136.933C157.69 136.753 157.424 136.662 157.082 136.662H154.674V139.401H157.082ZM164.786 134.676H168.744C169.436 134.676 170.068 134.786 170.64 135.007C171.212 135.228 171.699 135.559 172.1 136C172.501 136.432 172.812 136.978 173.033 137.641C173.254 138.293 173.364 139.055 173.364 139.928C173.364 140.801 173.254 141.569 173.033 142.231C172.812 142.883 172.501 143.43 172.1 143.871C171.699 144.303 171.212 144.629 170.64 144.85C170.068 145.07 169.436 145.181 168.744 145.181H164.786V134.676ZM168.744 143.149C169.426 143.149 169.963 142.958 170.354 142.577C170.745 142.196 170.941 141.584 170.941 140.741V139.115C170.941 138.273 170.745 137.661 170.354 137.279C169.963 136.898 169.426 136.707 168.744 136.707H167.073V143.149H168.744ZM180.938 145.361C180.015 145.361 179.233 145.206 178.591 144.895C177.949 144.574 177.402 144.162 176.95 143.661L178.455 142.141C179.168 142.943 180.045 143.345 181.089 143.345C181.651 143.345 182.067 143.229 182.338 142.998C182.609 142.768 182.745 142.462 182.745 142.08C182.745 141.789 182.664 141.549 182.504 141.358C182.343 141.157 182.017 141.022 181.525 140.952L180.487 140.816C179.373 140.676 178.556 140.34 178.034 139.808C177.522 139.276 177.266 138.569 177.266 137.686C177.266 137.214 177.357 136.783 177.537 136.391C177.718 136 177.974 135.664 178.305 135.383C178.646 135.102 179.057 134.886 179.539 134.736C180.03 134.575 180.587 134.495 181.209 134.495C182.002 134.495 182.699 134.62 183.301 134.871C183.903 135.122 184.42 135.488 184.852 135.97L183.331 137.505C183.081 137.214 182.775 136.978 182.413 136.798C182.062 136.607 181.616 136.512 181.074 136.512C180.562 136.512 180.181 136.602 179.93 136.783C179.679 136.963 179.554 137.214 179.554 137.535C179.554 137.896 179.649 138.157 179.84 138.318C180.04 138.478 180.362 138.594 180.803 138.664L181.841 138.83C182.925 139 183.728 139.336 184.25 139.838C184.771 140.33 185.032 141.032 185.032 141.945C185.032 142.447 184.942 142.908 184.761 143.33C184.581 143.751 184.315 144.112 183.964 144.413C183.622 144.714 183.196 144.95 182.684 145.121C182.173 145.281 181.591 145.361 180.938 145.361ZM66.7815 169.181V158.676H73.7497V160.707H69.0691V162.86H73.0574V164.876H69.0691V169.181H66.7815ZM81.6012 169.361C80.9089 169.361 80.2768 169.246 79.7049 169.015C79.133 168.784 78.6464 168.443 78.245 167.992C77.8437 167.53 77.5327 166.963 77.3119 166.291C77.0912 165.609 76.9808 164.821 76.9808 163.928C76.9808 163.035 77.0912 162.253 77.3119 161.58C77.5327 160.898 77.8437 160.331 78.245 159.88C78.6464 159.418 79.133 159.072 79.7049 158.841C80.2768 158.61 80.9089 158.495 81.6012 158.495C82.2935 158.495 82.9256 158.61 83.4975 158.841C84.0695 159.072 84.5561 159.418 84.9574 159.88C85.3588 160.331 85.6698 160.898 85.8905 161.58C86.1113 162.253 86.2216 163.035 86.2216 163.928C86.2216 164.821 86.1113 165.609 85.8905 166.291C85.6698 166.963 85.3588 167.53 84.9574 167.992C84.5561 168.443 84.0695 168.784 83.4975 169.015C82.9256 169.246 82.2935 169.361 81.6012 169.361ZM81.6012 167.33C82.2935 167.33 82.8303 167.104 83.2116 166.652C83.6029 166.201 83.7986 165.554 83.7986 164.711V163.146C83.7986 162.303 83.6029 161.656 83.2116 161.204C82.8303 160.753 82.2935 160.527 81.6012 160.527C80.9089 160.527 80.3671 160.753 79.9758 161.204C79.5945 161.656 79.4039 162.303 79.4039 163.146V164.711C79.4039 165.554 79.5945 166.201 79.9758 166.652C80.3671 167.104 80.9089 167.33 81.6012 167.33ZM94.6026 169.361C93.9103 169.361 93.2782 169.246 92.7063 169.015C92.1344 168.784 91.6477 168.443 91.2464 167.992C90.8451 167.53 90.534 166.963 90.3133 166.291C90.0926 165.609 89.9822 164.821 89.9822 163.928C89.9822 163.035 90.0926 162.253 90.3133 161.58C90.534 160.898 90.8451 160.331 91.2464 159.88C91.6477 159.418 92.1344 159.072 92.7063 158.841C93.2782 158.61 93.9103 158.495 94.6026 158.495C95.2949 158.495 95.927 158.61 96.4989 158.841C97.0708 159.072 97.5575 159.418 97.9588 159.88C98.3601 160.331 98.6712 160.898 98.8919 161.58C99.1126 162.253 99.223 163.035 99.223 163.928C99.223 164.821 99.1126 165.609 98.8919 166.291C98.6712 166.963 98.3601 167.53 97.9588 167.992C97.5575 168.443 97.0708 168.784 96.4989 169.015C95.927 169.246 95.2949 169.361 94.6026 169.361ZM94.6026 167.33C95.2949 167.33 95.8317 167.104 96.213 166.652C96.6043 166.201 96.7999 165.554 96.7999 164.711V163.146C96.7999 162.303 96.6043 161.656 96.213 161.204C95.8317 160.753 95.2949 160.527 94.6026 160.527C93.9103 160.527 93.3685 160.753 92.9772 161.204C92.5959 161.656 92.4053 162.303 92.4053 163.146V164.711C92.4053 165.554 92.5959 166.201 92.9772 166.652C93.3685 167.104 93.9103 167.33 94.6026 167.33ZM107.387 160.707V169.181H105.1V160.707H102.255V158.676H110.232V160.707H107.387ZM114.054 169.181V158.676H119.021C119.513 158.676 119.954 158.761 120.345 158.932C120.737 159.092 121.068 159.318 121.339 159.609C121.62 159.9 121.835 160.256 121.986 160.677C122.136 161.089 122.212 161.54 122.212 162.032C122.212 162.534 122.136 162.99 121.986 163.401C121.835 163.813 121.62 164.164 121.339 164.455C121.068 164.746 120.737 164.977 120.345 165.147C119.954 165.308 119.513 165.388 119.021 165.388H116.342V169.181H114.054ZM116.342 163.401H118.75C119.091 163.401 119.357 163.316 119.548 163.146C119.748 162.965 119.849 162.704 119.849 162.363V161.701C119.849 161.36 119.748 161.104 119.548 160.933C119.357 160.753 119.091 160.662 118.75 160.662H116.342V163.401ZM128.476 169.181H126.189V158.676H131.17C131.652 158.676 132.088 158.756 132.48 158.916C132.871 159.077 133.202 159.308 133.473 159.609C133.754 159.9 133.97 160.251 134.12 160.662C134.271 161.074 134.346 161.53 134.346 162.032C134.346 162.744 134.185 163.366 133.864 163.898C133.553 164.43 133.077 164.816 132.434 165.057L134.496 169.181H131.953L130.117 165.328H128.476V169.181ZM130.884 163.401C131.225 163.401 131.491 163.316 131.682 163.146C131.883 162.965 131.983 162.704 131.983 162.363V161.701C131.983 161.36 131.883 161.104 131.682 160.933C131.491 160.753 131.225 160.662 130.884 160.662H128.476V163.401H130.884ZM138.181 169.181V167.36H139.536V160.497H138.181V158.676H143.178V160.497H141.823V167.36H143.178V169.181H138.181ZM150.547 164.214L149.539 162.107H149.493V169.181H147.341V158.676H149.84L152.714 163.642L153.722 165.749H153.768V158.676H155.92V169.181H153.421L150.547 164.214ZM164.869 160.707V169.181H162.582V160.707H159.737V158.676H167.714V160.707H164.869Z" fill="#219653"/>
</svg>
