<svg width="236" height="236" viewBox="0 0 236 236" fill="none" xmlns="http://www.w3.org/2000/svg">
<path fill-rule="evenodd" clip-rule="evenodd" d="M118 21.8292V0.758953C85.6737 0.758953 56.4079 14.1307 35.2236 35.3744L49.8903 50.0411C67.321 32.6104 91.4013 21.8292 118 21.8292Z" fill="#CFD8DC"/>
<path fill-rule="evenodd" clip-rule="evenodd" d="M21.6789 118.151H0.608406C0.608406 85.8245 13.9802 56.5587 35.2239 35.3745L49.8906 50.0412C32.46 67.472 21.6789 91.5522 21.6789 118.151Z" fill="#CFD8DC"/>
<path fill-rule="evenodd" clip-rule="evenodd" d="M21.6789 118.151H0.608406C0.608406 150.477 13.9802 179.742 35.2239 200.927L49.8906 186.26C32.46 168.829 21.6789 144.749 21.6789 118.151Z" fill="#CFD8DC"/>
<path fill-rule="evenodd" clip-rule="evenodd" d="M118 214.472V235.542C85.6737 235.542 56.4079 222.17 35.2236 200.927L49.8903 186.26C67.321 203.691 91.4013 214.472 118 214.472Z" fill="#CFD8DC"/>
<path fill-rule="evenodd" clip-rule="evenodd" d="M118 214.472V235.542C150.326 235.542 179.592 222.17 200.776 200.927L186.109 186.26C168.678 203.691 144.598 214.472 118 214.472Z" fill="#CFD8DC"/>
<path fill-rule="evenodd" clip-rule="evenodd" d="M214.321 118.151H235.392C235.392 150.477 222.02 179.742 200.776 200.927L186.109 186.26C203.54 168.829 214.321 144.749 214.321 118.151Z" fill="#CFD8DC"/>
<path fill-rule="evenodd" clip-rule="evenodd" d="M214.321 118.151H235.392C235.392 85.8245 222.02 56.5587 200.776 35.3745L186.109 50.0412C203.54 67.472 214.321 91.5522 214.321 118.151Z" fill="#CFD8DC"/>
<path fill-rule="evenodd" clip-rule="evenodd" d="M118 21.8293V0.759033C150.326 0.759033 179.592 14.1308 200.776 35.3745L186.109 50.0412C168.678 32.6104 144.598 21.8293 118 21.8293Z" fill="#219653"/>
<path d="M45.2344 121.96V115.768H54.8545V91.8203H54.394L47.1278 101.338L42.2154 97.5003L50.7609 86.2427H62.5301V115.768H70.1034V121.96H45.2344ZM98.7902 121.96H73.5118V114.949L84.5135 105.534C85.5028 104.681 86.3386 103.914 87.0209 103.231C87.7032 102.515 88.249 101.833 88.6584 101.185C89.1018 100.502 89.4089 99.837 89.5794 99.1889C89.7841 98.5407 89.8865 97.8414 89.8865 97.0909V96.3745C89.8865 95.6922 89.75 95.0952 89.4771 94.5835C89.2042 94.0718 88.846 93.6454 88.4025 93.3043C87.959 92.9631 87.4473 92.7073 86.8674 92.5367C86.3216 92.3661 85.7587 92.2808 85.1788 92.2808C84.3259 92.2808 83.5754 92.4173 82.9273 92.6902C82.3132 92.9631 81.7674 93.3384 81.2898 93.816C80.8463 94.2594 80.4711 94.7882 80.164 95.4023C79.857 95.9822 79.6182 96.6133 79.4476 97.2956L72.7443 94.737C73.1536 93.5089 73.7165 92.3491 74.4329 91.2574C75.1493 90.1317 76.0363 89.1594 77.0938 88.3407C78.1854 87.4879 79.4647 86.8226 80.9316 86.345C82.3985 85.8674 84.053 85.6287 85.8952 85.6287C87.8396 85.6287 89.5624 85.9016 91.0634 86.4474C92.5644 86.9932 93.8266 87.7437 94.85 88.6989C95.9075 89.6541 96.7092 90.7969 97.255 92.1273C97.8009 93.4237 98.0738 94.8394 98.0738 96.3745C98.0738 97.9096 97.8179 99.3083 97.3062 100.57C96.7945 101.833 96.0952 103.027 95.2082 104.152C94.3554 105.244 93.349 106.285 92.1891 107.274C91.0293 108.263 89.8182 109.27 88.556 110.293L81.9038 115.512H98.7902V121.96ZM108.8 113.312C110.335 113.312 111.46 113.704 112.177 114.489C112.927 115.239 113.303 116.212 113.303 117.406V118.429C113.303 120.51 112.791 122.557 111.768 124.57C110.778 126.582 109.465 128.22 107.827 129.482H102.71C103.904 128.356 104.928 127.23 105.781 126.105C106.633 125.013 107.282 123.785 107.725 122.42C106.531 122.216 105.661 121.755 105.115 121.039C104.57 120.288 104.297 119.418 104.297 118.429V117.406C104.297 116.212 104.655 115.239 105.371 114.489C106.122 113.704 107.265 113.312 108.8 113.312ZM142.806 92.9461H126.585L125.817 104.255H126.227C126.568 103.402 126.943 102.634 127.353 101.952C127.796 101.236 128.308 100.639 128.888 100.161C129.468 99.6494 130.167 99.2571 130.986 98.9842C131.804 98.7113 132.777 98.5748 133.902 98.5748C135.438 98.5748 136.87 98.8307 138.201 99.3424C139.531 99.8541 140.691 100.605 141.68 101.594C142.67 102.549 143.454 103.743 144.034 105.176C144.614 106.575 144.904 108.161 144.904 109.935C144.904 111.743 144.597 113.431 143.983 115.001C143.403 116.536 142.516 117.866 141.322 118.992C140.162 120.118 138.73 121.005 137.024 121.653C135.318 122.267 133.374 122.574 131.19 122.574C129.451 122.574 127.915 122.386 126.585 122.011C125.255 121.636 124.078 121.141 123.054 120.527C122.031 119.879 121.144 119.145 120.393 118.327C119.643 117.508 118.995 116.638 118.449 115.717L124.027 111.316C124.811 112.715 125.749 113.909 126.841 114.898C127.933 115.853 129.399 116.331 131.242 116.331C133.084 116.331 134.465 115.802 135.386 114.745C136.342 113.687 136.819 112.289 136.819 110.549V110.139C136.819 108.502 136.342 107.206 135.386 106.25C134.431 105.295 133.118 104.818 131.446 104.818C130.048 104.818 128.888 105.108 127.967 105.688C127.08 106.233 126.397 106.779 125.92 107.325L119.626 106.455L120.956 86.2427H142.806V92.9461ZM155.425 121.96L180.192 86.2427H186.946L162.18 121.96H155.425ZM158.035 105.892C155.033 105.892 152.747 105.039 151.178 103.334C149.609 101.628 148.824 99.1036 148.824 95.7604C148.824 92.4173 149.609 89.8929 151.178 88.1872C152.747 86.4815 155.033 85.6287 158.035 85.6287C161.037 85.6287 163.323 86.4815 164.892 88.1872C166.461 89.8929 167.246 92.4173 167.246 95.7604C167.246 99.1036 166.461 101.628 164.892 103.334C163.323 105.039 161.037 105.892 158.035 105.892ZM158.035 101.492C158.922 101.492 159.587 101.15 160.031 100.468C160.474 99.7518 160.696 98.626 160.696 97.0909V94.43C160.696 92.8949 160.474 91.7862 160.031 91.1039C159.587 90.3875 158.922 90.0293 158.035 90.0293C157.148 90.0293 156.483 90.3875 156.039 91.1039C155.596 91.7862 155.374 92.8949 155.374 94.43V97.0909C155.374 98.626 155.596 99.7518 156.039 100.468C156.483 101.15 157.148 101.492 158.035 101.492ZM184.337 122.574C181.335 122.574 179.049 121.721 177.48 120.015C175.911 118.31 175.126 115.785 175.126 112.442C175.126 109.099 175.911 106.575 177.48 104.869C179.049 103.163 181.335 102.31 184.337 102.31C187.339 102.31 189.624 103.163 191.194 104.869C192.763 106.575 193.547 109.099 193.547 112.442C193.547 115.785 192.763 118.31 191.194 120.015C189.624 121.721 187.339 122.574 184.337 122.574ZM184.337 118.173C185.224 118.173 185.889 117.832 186.332 117.15C186.776 116.433 186.998 115.308 186.998 113.773V111.112C186.998 109.577 186.776 108.468 186.332 107.786C185.889 107.069 185.224 106.711 184.337 106.711C183.45 106.711 182.785 107.069 182.341 107.786C181.898 108.468 181.676 109.577 181.676 111.112V113.773C181.676 115.308 181.898 116.433 182.341 117.15C182.785 117.832 183.45 118.173 184.337 118.173Z" fill="#219653"/>
<path d="M85.729 145.361C85.0166 145.361 84.3745 145.251 83.8025 145.03C83.2306 144.799 82.744 144.463 82.3427 144.022C81.9413 143.57 81.6303 143.013 81.4096 142.351C81.1888 141.679 81.0785 140.896 81.0785 140.003C81.0785 139.12 81.1888 138.338 81.4096 137.656C81.6303 136.963 81.9413 136.386 82.3427 135.925C82.744 135.453 83.2306 135.097 83.8025 134.856C84.3745 134.615 85.0166 134.495 85.729 134.495C86.7022 134.495 87.5049 134.696 88.137 135.097C88.7691 135.488 89.2758 136.11 89.6571 136.963L87.6855 137.987C87.545 137.545 87.3243 137.194 87.0233 136.933C86.7323 136.662 86.3009 136.527 85.729 136.527C85.0567 136.527 84.5149 136.748 84.1036 137.189C83.7022 137.62 83.5015 138.253 83.5015 139.085V140.771C83.5015 141.604 83.7022 142.241 84.1036 142.682C84.5149 143.114 85.0567 143.33 85.729 143.33C86.2908 143.33 86.7373 143.179 87.0684 142.878C87.4096 142.567 87.6604 142.196 87.821 141.764L89.6872 142.848C89.2959 143.651 88.7791 144.273 88.137 144.714C87.5049 145.146 86.7022 145.361 85.729 145.361ZM99.8996 145.181L99.147 142.682H95.6403L94.8878 145.181H92.5701L96.0317 134.676H98.8611L102.277 145.181H99.8996ZM97.4163 136.753H97.341L96.1822 140.741H98.5902L97.4163 136.753ZM108.276 145.181H105.988V134.676H110.97C111.452 134.676 111.888 134.756 112.279 134.916C112.671 135.077 113.002 135.308 113.273 135.609C113.554 135.9 113.769 136.251 113.92 136.662C114.07 137.074 114.146 137.53 114.146 138.032C114.146 138.744 113.985 139.366 113.664 139.898C113.353 140.43 112.876 140.816 112.234 141.057L114.296 145.181H111.753L109.917 141.328H108.276V145.181ZM110.684 139.401C111.025 139.401 111.291 139.316 111.482 139.146C111.682 138.965 111.783 138.704 111.783 138.363V137.701C111.783 137.36 111.682 137.104 111.482 136.933C111.291 136.753 111.025 136.662 110.684 136.662H108.276V139.401H110.684ZM118.387 134.676H123.489C124.362 134.676 125.039 134.921 125.521 135.413C126.013 135.905 126.258 136.557 126.258 137.37C126.258 137.771 126.203 138.112 126.093 138.393C125.993 138.674 125.852 138.905 125.671 139.085C125.501 139.266 125.295 139.401 125.054 139.492C124.824 139.572 124.573 139.617 124.302 139.627V139.717C124.553 139.717 124.814 139.763 125.085 139.853C125.365 139.943 125.621 140.089 125.852 140.289C126.083 140.48 126.274 140.731 126.424 141.042C126.585 141.353 126.665 141.734 126.665 142.186C126.665 142.597 126.595 142.988 126.454 143.36C126.324 143.721 126.138 144.037 125.897 144.308C125.656 144.579 125.37 144.794 125.039 144.955C124.708 145.105 124.347 145.181 123.956 145.181H118.387V134.676ZM120.675 143.254H123.309C123.61 143.254 123.845 143.174 124.016 143.013C124.197 142.843 124.287 142.607 124.287 142.306V141.794C124.287 141.493 124.197 141.263 124.016 141.102C123.845 140.932 123.61 140.846 123.309 140.846H120.675V143.254ZM120.675 138.98H122.947C123.248 138.98 123.484 138.895 123.655 138.724C123.825 138.554 123.911 138.318 123.911 138.017V137.565C123.911 137.264 123.825 137.029 123.655 136.858C123.484 136.687 123.248 136.602 122.947 136.602H120.675V138.98ZM134.897 145.361C134.205 145.361 133.573 145.246 133.001 145.015C132.429 144.784 131.942 144.443 131.541 143.992C131.14 143.53 130.829 142.963 130.608 142.291C130.387 141.609 130.277 140.821 130.277 139.928C130.277 139.035 130.387 138.253 130.608 137.58C130.829 136.898 131.14 136.331 131.541 135.88C131.942 135.418 132.429 135.072 133.001 134.841C133.573 134.61 134.205 134.495 134.897 134.495C135.589 134.495 136.222 134.61 136.793 134.841C137.365 135.072 137.852 135.418 138.253 135.88C138.655 136.331 138.966 136.898 139.186 137.58C139.407 138.253 139.518 139.035 139.518 139.928C139.518 140.821 139.407 141.609 139.186 142.291C138.966 142.963 138.655 143.53 138.253 143.992C137.852 144.443 137.365 144.784 136.793 145.015C136.222 145.246 135.589 145.361 134.897 145.361ZM134.897 143.33C135.589 143.33 136.126 143.104 136.508 142.652C136.899 142.201 137.094 141.554 137.094 140.711V139.146C137.094 138.303 136.899 137.656 136.508 137.204C136.126 136.753 135.589 136.527 134.897 136.527C134.205 136.527 133.663 136.753 133.272 137.204C132.89 137.656 132.7 138.303 132.7 139.146V140.711C132.7 141.554 132.89 142.201 133.272 142.652C133.663 143.104 134.205 143.33 134.897 143.33ZM146.89 140.214L145.882 138.107H145.837V145.181H143.684V134.676H146.183L149.057 139.642L150.066 141.749H150.111V134.676H152.263V145.181H149.765L146.89 140.214ZM69.6886 169.181V158.676H76.6569V160.707H71.9763V162.86H75.9646V164.876H71.9763V169.181H69.6886ZM84.5084 169.361C83.8161 169.361 83.184 169.246 82.6121 169.015C82.0401 168.784 81.5535 168.443 81.1522 167.992C80.7508 167.53 80.4398 166.963 80.2191 166.291C79.9983 165.609 79.888 164.821 79.888 163.928C79.888 163.035 79.9983 162.253 80.2191 161.58C80.4398 160.898 80.7508 160.331 81.1522 159.88C81.5535 159.418 82.0401 159.072 82.6121 158.841C83.184 158.61 83.8161 158.495 84.5084 158.495C85.2007 158.495 85.8328 158.61 86.4047 158.841C86.9766 159.072 87.4632 159.418 87.8646 159.88C88.2659 160.331 88.577 160.898 88.7977 161.58C89.0184 162.253 89.1288 163.035 89.1288 163.928C89.1288 164.821 89.0184 165.609 88.7977 166.291C88.577 166.963 88.2659 167.53 87.8646 167.992C87.4632 168.443 86.9766 168.784 86.4047 169.015C85.8328 169.246 85.2007 169.361 84.5084 169.361ZM84.5084 167.33C85.2007 167.33 85.7375 167.104 86.1188 166.652C86.5101 166.201 86.7057 165.554 86.7057 164.711V163.146C86.7057 162.303 86.5101 161.656 86.1188 161.204C85.7375 160.753 85.2007 160.527 84.5084 160.527C83.8161 160.527 83.2743 160.753 82.883 161.204C82.5017 161.656 82.3111 162.303 82.3111 163.146V164.711C82.3111 165.554 82.5017 166.201 82.883 166.652C83.2743 167.104 83.8161 167.33 84.5084 167.33ZM97.5098 169.361C96.8174 169.361 96.1853 169.246 95.6134 169.015C95.0415 168.784 94.5549 168.443 94.1536 167.992C93.7522 167.53 93.4412 166.963 93.2204 166.291C92.9997 165.609 92.8893 164.821 92.8893 163.928C92.8893 163.035 92.9997 162.253 93.2204 161.58C93.4412 160.898 93.7522 160.331 94.1536 159.88C94.5549 159.418 95.0415 159.072 95.6134 158.841C96.1853 158.61 96.8174 158.495 97.5098 158.495C98.2021 158.495 98.8342 158.61 99.4061 158.841C99.978 159.072 100.465 159.418 100.866 159.88C101.267 160.331 101.578 160.898 101.799 161.58C102.02 162.253 102.13 163.035 102.13 163.928C102.13 164.821 102.02 165.609 101.799 166.291C101.578 166.963 101.267 167.53 100.866 167.992C100.465 168.443 99.978 168.784 99.4061 169.015C98.8342 169.246 98.2021 169.361 97.5098 169.361ZM97.5098 167.33C98.2021 167.33 98.7389 167.104 99.1201 166.652C99.5114 166.201 99.7071 165.554 99.7071 164.711V163.146C99.7071 162.303 99.5114 161.656 99.1201 161.204C98.7389 160.753 98.2021 160.527 97.5098 160.527C96.8174 160.527 96.2756 160.753 95.8843 161.204C95.5031 161.656 95.3124 162.303 95.3124 163.146V164.711C95.3124 165.554 95.5031 166.201 95.8843 166.652C96.2756 167.104 96.8174 167.33 97.5098 167.33ZM110.295 160.707V169.181H108.007V160.707H105.162V158.676H113.139V160.707H110.295ZM116.962 169.181V158.676H121.928C122.42 158.676 122.861 158.761 123.253 158.932C123.644 159.092 123.975 159.318 124.246 159.609C124.527 159.9 124.743 160.256 124.893 160.677C125.044 161.089 125.119 161.54 125.119 162.032C125.119 162.534 125.044 162.99 124.893 163.401C124.743 163.813 124.527 164.164 124.246 164.455C123.975 164.746 123.644 164.977 123.253 165.147C122.861 165.308 122.42 165.388 121.928 165.388H119.249V169.181H116.962ZM119.249 163.401H121.657C121.998 163.401 122.264 163.316 122.455 163.146C122.656 162.965 122.756 162.704 122.756 162.363V161.701C122.756 161.36 122.656 161.104 122.455 160.933C122.264 160.753 121.998 160.662 121.657 160.662H119.249V163.401ZM131.383 169.181H129.096V158.676H134.077C134.559 158.676 134.995 158.756 135.387 158.916C135.778 159.077 136.109 159.308 136.38 159.609C136.661 159.9 136.877 160.251 137.027 160.662C137.178 161.074 137.253 161.53 137.253 162.032C137.253 162.744 137.092 163.366 136.771 163.898C136.46 164.43 135.984 164.816 135.342 165.057L137.403 169.181H134.86L133.024 165.328H131.383V169.181ZM133.791 163.401C134.133 163.401 134.398 163.316 134.589 163.146C134.79 162.965 134.89 162.704 134.89 162.363V161.701C134.89 161.36 134.79 161.104 134.589 160.933C134.398 160.753 134.133 160.662 133.791 160.662H131.383V163.401H133.791ZM141.088 169.181V167.36H142.443V160.497H141.088V158.676H146.085V160.497H144.73V167.36H146.085V169.181H141.088ZM153.454 164.214L152.446 162.107H152.401V169.181H150.248V158.676H152.747L155.621 163.642L156.63 165.749H156.675V158.676H158.827V169.181H156.329L153.454 164.214ZM167.776 160.707V169.181H165.489V160.707H162.644V158.676H170.621V160.707H167.776Z" fill="#219653"/>
</svg>
